<?xml version="1.0" encoding="utf-8"?>
<!-- Generator: Adobe Illustrator 24.3.0, SVG Export Plug-In . SVG Version: 6.00 Build 0)  -->
<svg version="1.1" id="Слой_1" xmlns="http://www.w3.org/2000/svg" xmlns:xlink="http://www.w3.org/1999/xlink" x="0px" y="0px"
	 viewBox="0 0 16 16" style="enable-background:new 0 0 16 16;" xml:space="preserve">
<style type="text/css">
	.st0{fill:none;stroke:#FF0000;stroke-width:0.75;stroke-miterlimit:10;}
</style>
<g>
	<circle class="st0" cx="7.7" cy="3.81" r="0.89"/>
	<circle class="st0" cx="4.93" cy="5.07" r="0.86"/>
	<circle class="st0" cx="3.9" cy="7.45" r="0.88"/>
	<circle class="st0" cx="7.7" cy="11.26" r="1.01"/>
	<path class="st0" d="M5.18,9.62C4.82,9.23,5.44,8.31,5.86,7.68c0.41-0.61,0.67-0.74,0.85-0.79C7.03,6.8,7.43,6.83,7.76,7
		c0.06,0.03,0.17,0.1,0.28,0.2C8.46,7.58,8.6,8.37,8.23,8.92C7.94,9.33,7.48,9.44,6.8,9.6C6.18,9.75,5.45,9.92,5.18,9.62z"/>
	<path class="st0" d="M11.12,9.16c0.85-0.49,1.86-0.44,2.76-0.09c0.09-0.42,0.13-0.85,0.13-1.29c0-3.43-2.78-6.21-6.22-6.21
		S1.58,4.35,1.58,7.79C1.58,11.22,4.36,14,7.8,14c0.88,0,1.71-0.18,2.47-0.51C9.51,12.05,9.55,10.07,11.12,9.16z"/>
	<path class="st0" d="M5.86,10.18L5.86,10.18c-0.11,0.52-0.62,0.84-1.13,0.72c-0.51-0.11-0.83-0.62-0.72-1.13
		C4.09,9.41,4.37,9.15,4.7,9.06c-0.11,0.51,0.21,1.01,0.72,1.12C5.57,10.22,5.72,10.21,5.86,10.18z"/>
	<path class="st0" d="M13.82,1.59c-0.21-0.38-1.2,0.25-1.56,0.5c-0.36,0.25-4.17,3.2-3.98,3.5C8.3,5.63,8.33,5.67,8.36,5.71
		c0.5,0.02,0.91,0.44,0.91,0.95c0,0.01,0,0.02,0,0.03c0.01,0.02,0.17,0.37,0.96-0.35c0.81-0.74,2.94-3.41,2.94-3.41
		S14.03,1.97,13.82,1.59z"/>
	<circle class="st0" cx="8.51" cy="6.55" r="0.74"/>
</g>
</svg>
